<svg width="25" height="25" viewBox="0 0 25 25" fill="none" xmlns="http://www.w3.org/2000/svg">
<g clip-path="url(#clip0_1_18626)">
<path d="M17.1864 0C15.8536 0.092187 14.2958 0.945307 13.388 2.05624C12.5599 3.06404 11.8786 4.56091 12.1443 6.01559C13.6005 6.0609 15.1052 5.18747 15.977 4.05779C16.7927 3.00623 17.4098 1.51874 17.1864 0Z" fill="black"/>
<path d="M22.4535 8.38746C21.1739 6.78278 19.3754 5.85153 17.677 5.85153C15.4348 5.85153 14.4864 6.92496 12.9286 6.92496C11.3224 6.92496 10.1021 5.85466 8.163 5.85466C6.25832 5.85466 4.23021 7.01871 2.94428 9.00933C1.13648 11.8124 1.44585 17.0827 4.37552 21.5718C5.42395 23.178 6.82395 24.9842 8.65518 24.9999C10.2849 25.0155 10.7442 23.9546 12.952 23.9436C15.1598 23.9311 15.5786 25.0139 17.2051 24.9967C19.0379 24.9827 20.5145 22.9811 21.5629 21.3749C22.3145 20.2233 22.5942 19.6436 23.177 18.3436C18.9379 16.7296 18.2583 10.7015 22.4535 8.38746Z" fill="black"/>
</g>
<defs>
<clipPath id="clip0_1_18626">
<rect width="25" height="25" fill="white"/>
</clipPath>
</defs>
</svg>
